<svg width="400" height="85" viewBox="0 0 400 85" fill="none" xmlns="http://www.w3.org/2000/svg">
<path d="M11.392 65C9.94133 65 8.61867 64.6587 7.424 63.976C6.272 63.2507 5.35467 62.312 4.672 61.16C3.98933 59.9653 3.648 58.664 3.648 57.256V55.4H8.896V57.256C8.896 57.9387 9.13067 58.536 9.6 59.048C10.112 59.5173 10.7093 59.752 11.392 59.752H42.432C43.1147 59.752 43.6907 59.5173 44.16 59.048C44.672 58.536 44.928 57.9387 44.928 57.256V46.376C44.928 45.6933 44.672 45.1173 44.16 44.648C43.6907 44.136 43.1147 43.88 42.432 43.88H3.648V18.856H50.176V24.168H11.392C10.7093 24.168 10.112 24.424 9.6 24.936C9.13067 25.4053 8.896 25.9813 8.896 26.664V36.072C8.896 36.7547 9.13067 37.352 9.6 37.864C10.112 38.376 10.7093 38.632 11.392 38.632H42.432C43.84 38.632 45.12 38.9733 46.272 39.656C47.4667 40.3387 48.4053 41.2773 49.088 42.472C49.8133 43.624 50.176 44.9253 50.176 46.376V57.256C50.176 58.664 49.8133 59.9653 49.088 61.16C48.4053 62.312 47.4667 63.2507 46.272 63.976C45.12 64.6587 43.84 65 42.432 65H11.392ZM56.773 65V47.72C56.773 46.2693 57.1143 44.968 57.797 43.816C58.4797 42.6213 59.397 41.6827 60.549 41C61.7437 40.3173 63.0663 39.976 64.517 39.976H95.557C96.2397 39.976 96.8157 39.7413 97.285 39.272C97.797 38.76 98.053 38.1627 98.053 37.48V26.664C98.053 25.9813 97.797 25.4053 97.285 24.936C96.8157 24.424 96.2397 24.168 95.557 24.168H64.517C63.8343 24.168 63.237 24.424 62.725 24.936C62.2557 25.4053 62.021 25.9813 62.021 26.664V28.456H56.773V26.664C56.773 25.2133 57.1143 23.912 57.797 22.76C58.4797 21.5653 59.397 20.6267 60.549 19.944C61.7437 19.2187 63.0663 18.856 64.517 18.856H95.557C96.965 18.856 98.245 19.2187 99.397 19.944C100.592 20.6267 101.53 21.5653 102.213 22.76C102.938 23.912 103.301 25.2133 103.301 26.664V37.48C103.301 38.888 102.938 40.1893 102.213 41.384C101.53 42.536 100.592 43.4747 99.397 44.2C98.245 44.8827 96.965 45.224 95.557 45.224H64.517C63.8343 45.224 63.237 45.48 62.725 45.992C62.2557 46.4613 62.021 47.0373 62.021 47.72V57.256C62.021 57.9387 62.2557 58.536 62.725 59.048C63.237 59.5173 63.8343 59.752 64.517 59.752H103.301V65H56.773ZM132.968 65C131.517 65 130.194 64.6587 129 63.976C127.848 63.2507 126.909 62.312 126.184 61.16C125.501 59.9653 125.16 58.664 125.16 57.256V35.624C125.16 34.216 125.501 32.936 126.184 31.784C126.909 30.5893 127.848 29.6507 129 28.968C130.194 28.2427 131.517 27.88 132.968 27.88H157.736V15.72H162.984V65H132.968ZM132.968 59.752H155.24C155.922 59.752 156.498 59.5173 156.968 59.048C157.48 58.536 157.736 57.9387 157.736 57.256V35.624C157.736 34.9413 157.48 34.3653 156.968 33.896C156.498 33.384 155.922 33.128 155.24 33.128H132.968C132.285 33.128 131.688 33.384 131.176 33.896C130.706 34.3653 130.472 34.9413 130.472 35.624V57.256C130.472 57.9387 130.706 58.536 131.176 59.048C131.688 59.5173 132.285 59.752 132.968 59.752ZM176.133 65C174.725 65 173.424 64.6587 172.229 63.976C171.077 63.2507 170.138 62.312 169.413 61.16C168.73 59.9653 168.389 58.664 168.389 57.256V35.624C168.389 34.216 168.73 32.936 169.413 31.784C170.138 30.5893 171.077 29.6507 172.229 28.968C173.424 28.2427 174.725 27.88 176.133 27.88H198.405C199.856 27.88 201.157 28.2427 202.309 28.968C203.504 29.6507 204.442 30.5893 205.125 31.784C205.85 32.936 206.213 34.216 206.213 35.624V49.064H173.637V57.256C173.637 57.9387 173.872 58.536 174.341 59.048C174.853 59.5173 175.45 59.752 176.133 59.752H206.213V65H176.133ZM173.637 43.816H200.901V35.624C200.901 34.9413 200.645 34.3653 200.133 33.896C199.664 33.384 199.088 33.128 198.405 33.128H176.133C175.45 33.128 174.853 33.384 174.341 33.896C173.872 34.3653 173.637 34.9413 173.637 35.624V43.816ZM220.254 65C218.846 65 217.544 64.6587 216.35 63.976C215.198 63.2507 214.259 62.312 213.534 61.16C212.851 59.9653 212.51 58.664 212.51 57.256V56.744H217.758V57.256C217.758 57.9387 217.992 58.536 218.462 59.048C218.974 59.5173 219.571 59.752 220.254 59.752H242.526C243.208 59.752 243.784 59.5173 244.254 59.048C244.766 58.536 245.022 57.9387 245.022 57.256V51.56C245.022 50.8773 244.766 50.3013 244.254 49.832C243.784 49.32 243.208 49.064 242.526 49.064H220.254C218.846 49.064 217.544 48.7227 216.35 48.04C215.198 47.3147 214.259 46.376 213.534 45.224C212.851 44.0293 212.51 42.728 212.51 41.32V35.624C212.51 34.216 212.851 32.936 213.534 31.784C214.259 30.5893 215.198 29.6507 216.35 28.968C217.544 28.2427 218.846 27.88 220.254 27.88H242.526C243.976 27.88 245.278 28.2427 246.43 28.968C247.624 29.6507 248.563 30.5893 249.246 31.784C249.971 32.936 250.334 34.216 250.334 35.624V36.136H245.022V35.624C245.022 34.9413 244.766 34.3653 244.254 33.896C243.784 33.384 243.208 33.128 242.526 33.128H220.254C219.571 33.128 218.974 33.384 218.462 33.896C217.992 34.3653 217.758 34.9413 217.758 35.624V41.32C217.758 42.0027 217.992 42.6 218.462 43.112C218.974 43.5813 219.571 43.816 220.254 43.816H242.526C243.976 43.816 245.278 44.1787 246.43 44.904C247.624 45.5867 248.563 46.5253 249.246 47.72C249.971 48.872 250.334 50.152 250.334 51.56V57.256C250.334 58.664 249.971 59.9653 249.246 61.16C248.563 62.312 247.624 63.2507 246.43 63.976C245.278 64.6587 243.976 65 242.526 65H220.254ZM256.641 65V27.88H261.889V65H256.641ZM256.641 20.968V15.72H261.889V20.968H256.641ZM276.097 79.656V74.344H299.265C299.948 74.344 300.524 74.088 300.993 73.576C301.505 73.1067 301.761 72.5307 301.761 71.848V65H276.993C275.585 65 274.284 64.6587 273.089 63.976C271.937 63.2507 270.998 62.312 270.273 61.16C269.59 59.9653 269.249 58.664 269.249 57.256V35.624C269.249 34.216 269.59 32.936 270.273 31.784C270.998 30.5893 271.937 29.6507 273.089 28.968C274.284 28.2427 275.585 27.88 276.993 27.88H299.265C300.716 27.88 302.017 28.2427 303.169 28.968C304.364 29.6507 305.302 30.5893 305.985 31.784C306.668 32.936 307.009 34.216 307.009 35.624V71.848C307.009 73.2987 306.668 74.6 305.985 75.752C305.302 76.9467 304.364 77.8853 303.169 78.568C302.017 79.2933 300.716 79.656 299.265 79.656H276.097ZM276.993 59.752H299.265C299.948 59.752 300.524 59.5173 300.993 59.048C301.505 58.536 301.761 57.9387 301.761 57.256V35.624C301.761 34.9413 301.505 34.3653 300.993 33.896C300.524 33.384 299.948 33.128 299.265 33.128H276.993C276.31 33.128 275.713 33.384 275.201 33.896C274.732 34.3653 274.497 34.9413 274.497 35.624V57.256C274.497 57.9387 274.732 58.536 275.201 59.048C275.713 59.5173 276.31 59.752 276.993 59.752ZM313.769 65V27.88H343.849C345.257 27.88 346.537 28.2427 347.689 28.968C348.883 29.6507 349.822 30.5893 350.505 31.784C351.23 32.936 351.593 34.216 351.593 35.624V65H346.345V35.624C346.345 34.9413 346.089 34.3653 345.576 33.896C345.107 33.384 344.531 33.128 343.849 33.128H321.577C320.894 33.128 320.297 33.384 319.785 33.896C319.273 34.3653 319.017 34.9413 319.017 35.624V65H313.769ZM365.691 65C364.283 65 362.982 64.6587 361.787 63.976C360.635 63.2507 359.696 62.312 358.971 61.16C358.288 59.9653 357.947 58.664 357.947 57.256V56.744H363.195V57.256C363.195 57.9387 363.43 58.536 363.899 59.048C364.411 59.5173 365.008 59.752 365.691 59.752H387.963C388.646 59.752 389.222 59.5173 389.691 59.048C390.203 58.536 390.459 57.9387 390.459 57.256V51.56C390.459 50.8773 390.203 50.3013 389.691 49.832C389.222 49.32 388.646 49.064 387.963 49.064H365.691C364.283 49.064 362.982 48.7227 361.787 48.04C360.635 47.3147 359.696 46.376 358.971 45.224C358.288 44.0293 357.947 42.728 357.947 41.32V35.624C357.947 34.216 358.288 32.936 358.971 31.784C359.696 30.5893 360.635 29.6507 361.787 28.968C362.982 28.2427 364.283 27.88 365.691 27.88H387.963C389.414 27.88 390.715 28.2427 391.867 28.968C393.062 29.6507 394 30.5893 394.683 31.784C395.408 32.936 395.771 34.216 395.771 35.624V36.136H390.459V35.624C390.459 34.9413 390.203 34.3653 389.691 33.896C389.222 33.384 388.646 33.128 387.963 33.128H365.691C365.008 33.128 364.411 33.384 363.899 33.896C363.43 34.3653 363.195 34.9413 363.195 35.624V41.32C363.195 42.0027 363.43 42.6 363.899 43.112C364.411 43.5813 365.008 43.816 365.691 43.816H387.963C389.414 43.816 390.715 44.1787 391.867 44.904C393.062 45.5867 394 46.5253 394.683 47.72C395.408 48.872 395.771 50.152 395.771 51.56V57.256C395.771 58.664 395.408 59.9653 394.683 61.16C394 62.312 393.062 63.2507 391.867 63.976C390.715 64.6587 389.414 65 387.963 65H365.691Z" fill="url(#paint0_linear_3_6)"/>
<defs>
<linearGradient id="paint0_linear_3_6" x1="0" y1="43.4445" x2="400" y2="43.4445" gradientUnits="userSpaceOnUse">
<stop stop-color="#DB0B5F"/>
<stop offset="1" stop-color="#6F00ED"/>
</linearGradient>
</defs>
</svg>
