<svg width="400" height="85" viewBox="0 0 400 85" fill="none" xmlns="http://www.w3.org/2000/svg">
<path d="M11.968 65C10.432 65 9.024 64.616 7.744 63.848C6.50667 63.08 5.504 62.0773 4.736 60.84C4.01067 59.6027 3.648 58.216 3.648 56.68V54.184H10.56V56.488C10.56 56.9147 10.7093 57.2987 11.008 57.64C11.3493 57.9387 11.7333 58.088 12.16 58.088H41.216C41.6427 58.088 42.0053 57.9387 42.304 57.64C42.6453 57.2987 42.816 56.9147 42.816 56.488V46.44C42.816 46.0133 42.6453 45.6507 42.304 45.352C42.0053 45.0107 41.6427 44.84 41.216 44.84H3.648V18.856H49.728V25.832H12.16C11.7333 25.832 11.3493 26.0027 11.008 26.344C10.7093 26.6427 10.56 27.0053 10.56 27.432V36.328C10.56 36.7547 10.7093 37.1387 11.008 37.48C11.3493 37.7787 11.7333 37.928 12.16 37.928H41.408C42.9013 37.928 44.2667 38.2907 45.504 39.016C46.784 39.7413 47.808 40.744 48.576 42.024C49.344 43.304 49.728 44.712 49.728 46.248V56.68C49.728 58.216 49.344 59.6027 48.576 60.84C47.808 62.0773 46.784 63.08 45.504 63.848C44.2667 64.616 42.9013 65 41.408 65H11.968ZM56.773 65V47.528C56.773 45.9493 57.1357 44.5413 57.861 43.304C58.629 42.0667 59.6317 41.0853 60.869 40.36C62.149 39.592 63.557 39.208 65.093 39.208H94.341C94.7677 39.208 95.1303 39.0587 95.429 38.76C95.7703 38.4187 95.941 38.0347 95.941 37.608V27.432C95.941 27.0053 95.7703 26.6427 95.429 26.344C95.1303 26.0027 94.7677 25.832 94.341 25.832H65.285C64.8583 25.832 64.4743 26.0027 64.133 26.344C63.8343 26.6427 63.685 27.0053 63.685 27.432V29.928H56.773V27.24C56.773 25.6613 57.1357 24.2533 57.861 23.016C58.629 21.7787 59.6317 20.776 60.869 20.008C62.149 19.24 63.557 18.856 65.093 18.856H94.533C96.0263 18.856 97.3917 19.24 98.629 20.008C99.909 20.776 100.933 21.7787 101.701 23.016C102.469 24.2533 102.853 25.6613 102.853 27.24V37.8C102.853 39.336 102.469 40.744 101.701 42.024C100.933 43.2613 99.909 44.264 98.629 45.032C97.3917 45.7573 96.0263 46.12 94.533 46.12H65.285C64.8583 46.12 64.4743 46.2907 64.133 46.632C63.8343 46.9307 63.685 47.2933 63.685 47.72V56.488C63.685 56.9147 63.8343 57.2987 64.133 57.64C64.4743 57.9387 64.8583 58.088 65.285 58.088H102.853V65H56.773ZM134.605 65C133.069 65 131.661 64.6373 130.381 63.912C129.143 63.144 128.141 62.12 127.373 60.84C126.647 59.56 126.285 58.1733 126.285 56.68V36.2C126.285 34.664 126.647 33.2773 127.373 32.04C128.141 30.8027 129.143 29.8 130.381 29.032C131.661 28.264 133.069 27.88 134.605 27.88H157.132V15.72H164.045V65H134.605ZM134.861 58.088H155.597C156.023 58.088 156.386 57.9387 156.685 57.64C156.983 57.2987 157.132 56.9147 157.132 56.488V36.392C157.132 35.9653 156.983 35.6027 156.685 35.304C156.386 34.9627 156.023 34.792 155.597 34.792H134.861C134.434 34.792 134.05 34.9627 133.709 35.304C133.41 35.6027 133.26 35.9653 133.26 36.392V56.488C133.26 56.9147 133.41 57.2987 133.709 57.64C134.05 57.9387 134.434 58.088 134.861 58.088ZM177.772 65C176.236 65 174.849 64.616 173.612 63.848C172.374 63.08 171.372 62.0773 170.604 60.84C169.836 59.6027 169.452 58.216 169.452 56.68V36.2C169.452 34.664 169.836 33.2773 170.604 32.04C171.372 30.8027 172.374 29.8 173.612 29.032C174.849 28.264 176.236 27.88 177.772 27.88H198.892C200.428 27.88 201.814 28.264 203.052 29.032C204.332 29.7573 205.334 30.76 206.06 32.04C206.828 33.32 207.212 34.7067 207.212 36.2V49.896H176.364V56.488C176.364 56.9147 176.513 57.2987 176.812 57.64C177.153 57.9387 177.537 58.088 177.964 58.088H207.212V65H177.772ZM176.364 43.432H200.236V36.392C200.236 35.9653 200.086 35.6027 199.788 35.304C199.489 34.9627 199.126 34.792 198.7 34.792H177.964C177.537 34.792 177.153 34.9627 176.812 35.304C176.513 35.6027 176.364 35.9653 176.364 36.392V43.432ZM221.642 65C220.106 65 218.719 64.616 217.482 63.848C216.245 63.08 215.242 62.0773 214.474 60.84C213.706 59.6027 213.322 58.216 213.322 56.68V55.72H220.234V56.488C220.234 56.9147 220.383 57.2987 220.682 57.64C221.023 57.9387 221.407 58.088 221.834 58.088H242.57C242.997 58.088 243.359 57.9387 243.658 57.64C243.957 57.2987 244.106 56.9147 244.106 56.488V51.496C244.106 51.0693 243.957 50.7067 243.658 50.408C243.359 50.0667 242.997 49.896 242.57 49.896H221.642C220.106 49.896 218.719 49.5333 217.482 48.808C216.245 48.04 215.242 47.0373 214.474 45.8C213.706 44.52 213.322 43.112 213.322 41.576V36.2C213.322 34.664 213.706 33.2773 214.474 32.04C215.242 30.8027 216.245 29.8 217.482 29.032C218.719 28.264 220.106 27.88 221.642 27.88H242.762C244.298 27.88 245.685 28.264 246.922 29.032C248.202 29.8 249.205 30.8027 249.93 32.04C250.698 33.2773 251.082 34.664 251.082 36.2V37.16H244.106V36.392C244.106 35.9653 243.957 35.6027 243.658 35.304C243.359 34.9627 242.997 34.792 242.57 34.792H221.834C221.407 34.792 221.023 34.9627 220.682 35.304C220.383 35.6027 220.234 35.9653 220.234 36.392V41.384C220.234 41.8107 220.383 42.1947 220.682 42.536C221.023 42.8347 221.407 42.984 221.834 42.984H242.762C244.298 42.984 245.685 43.368 246.922 44.136C248.202 44.8613 249.205 45.864 249.93 47.144C250.698 48.3813 251.082 49.768 251.082 51.304V56.68C251.082 58.216 250.698 59.6027 249.93 60.84C249.205 62.0773 248.202 63.08 246.922 63.848C245.685 64.616 244.298 65 242.762 65H221.642ZM257.453 65V27.88H264.365V65H257.453ZM257.453 22.632V15.72H264.365V22.632H257.453ZM277.09 79.656V72.68H299.81C300.236 72.68 300.599 72.5093 300.898 72.168C301.239 71.8693 301.41 71.5067 301.41 71.08V65H278.882C277.388 65 276.002 64.6373 274.722 63.912C273.442 63.144 272.418 62.12 271.65 60.84C270.924 59.56 270.562 58.1733 270.562 56.68V36.2C270.562 34.664 270.946 33.2773 271.714 32.04C272.482 30.8027 273.484 29.8 274.722 29.032C276.002 28.264 277.388 27.88 278.882 27.88H300.002C301.538 27.88 302.924 28.264 304.162 29.032C305.442 29.8 306.444 30.8027 307.17 32.04C307.938 33.2773 308.322 34.664 308.322 36.2V71.336C308.322 72.872 307.938 74.2587 307.17 75.496C306.444 76.776 305.442 77.7787 304.162 78.504C302.924 79.272 301.538 79.656 300.002 79.656H277.09ZM279.074 58.088H299.81C300.236 58.088 300.599 57.9387 300.898 57.64C301.239 57.2987 301.41 56.9147 301.41 56.488V36.392C301.41 35.9653 301.239 35.6027 300.898 35.304C300.599 34.9627 300.236 34.792 299.81 34.792H279.074C278.647 34.792 278.263 34.9627 277.922 35.304C277.623 35.6027 277.474 35.9653 277.474 36.392V56.488C277.474 56.9147 277.623 57.2987 277.922 57.64C278.263 57.9387 278.647 58.088 279.074 58.088ZM315.081 65V27.88H344.521C346.057 27.88 347.444 28.264 348.681 29.032C349.961 29.8 350.964 30.8027 351.689 32.04C352.457 33.2773 352.841 34.664 352.841 36.2V65H345.929V36.392C345.929 35.9653 345.758 35.6027 345.417 35.304C345.118 34.9627 344.756 34.792 344.329 34.792H323.593C323.166 34.792 322.782 34.9627 322.441 35.304C322.142 35.6027 321.993 35.9653 321.993 36.392V65H315.081ZM367.142 65C365.606 65 364.219 64.616 362.982 63.848C361.745 63.08 360.742 62.0773 359.974 60.84C359.206 59.6027 358.822 58.216 358.822 56.68V55.72H365.734V56.488C365.734 56.9147 365.883 57.2987 366.182 57.64C366.523 57.9387 366.907 58.088 367.334 58.088H388.07C388.497 58.088 388.859 57.9387 389.158 57.64C389.457 57.2987 389.606 56.9147 389.606 56.488V51.496C389.606 51.0693 389.457 50.7067 389.158 50.408C388.859 50.0667 388.497 49.896 388.07 49.896H367.142C365.606 49.896 364.219 49.5333 362.982 48.808C361.745 48.04 360.742 47.0373 359.974 45.8C359.206 44.52 358.822 43.112 358.822 41.576V36.2C358.822 34.664 359.206 33.2773 359.974 32.04C360.742 30.8027 361.745 29.8 362.982 29.032C364.219 28.264 365.606 27.88 367.142 27.88H388.262C389.798 27.88 391.185 28.264 392.422 29.032C393.702 29.8 394.705 30.8027 395.43 32.04C396.198 33.2773 396.582 34.664 396.582 36.2V37.16H389.606V36.392C389.606 35.9653 389.457 35.6027 389.158 35.304C388.859 34.9627 388.497 34.792 388.07 34.792H367.334C366.907 34.792 366.523 34.9627 366.182 35.304C365.883 35.6027 365.734 35.9653 365.734 36.392V41.384C365.734 41.8107 365.883 42.1947 366.182 42.536C366.523 42.8347 366.907 42.984 367.334 42.984H388.262C389.798 42.984 391.185 43.368 392.422 44.136C393.702 44.8613 394.705 45.864 395.43 47.144C396.198 48.3813 396.582 49.768 396.582 51.304V56.68C396.582 58.216 396.198 59.6027 395.43 60.84C394.705 62.0773 393.702 63.08 392.422 63.848C391.185 64.616 389.798 65 388.262 65H367.142Z" fill="url(#paint0_linear_2_4)"/>
<defs>
<linearGradient id="paint0_linear_2_4" x1="0" y1="43.4445" x2="400" y2="43.4445" gradientUnits="userSpaceOnUse">
<stop stop-color="#DB0B5F"/>
<stop offset="1" stop-color="#6F00ED"/>
</linearGradient>
</defs>
</svg>
