<svg width="110" height="110" viewBox="0 0 110 110" fill="none" xmlns="http://www.w3.org/2000/svg">
<rect width="110" height="110" rx="5" fill="#0D0D0D"/>
<path d="M14.355 80C12.7337 80 11.2617 79.5947 9.939 78.784C8.61633 77.9733 7.54967 76.9067 6.739 75.584C5.92833 74.2613 5.523 72.7893 5.523 71.168V68.16H13.907V70.848C13.907 71.0613 13.971 71.2533 14.099 71.424C14.2697 71.552 14.4617 71.616 14.675 71.616H42.003C42.2163 71.616 42.387 71.552 42.515 71.424C42.6857 71.2533 42.771 71.0613 42.771 70.848V61.504C42.771 61.2907 42.6857 61.12 42.515 60.992C42.387 60.8213 42.2163 60.736 42.003 60.736H5.523V33.92H51.155V42.304H14.675C14.4617 42.304 14.2697 42.3893 14.099 42.56C13.971 42.688 13.907 42.8587 13.907 43.072V51.52C13.907 51.7333 13.971 51.9253 14.099 52.096C14.2697 52.224 14.4617 52.288 14.675 52.288H42.323C43.9443 52.288 45.4163 52.6933 46.739 53.504C48.1043 54.272 49.171 55.3387 49.939 56.704C50.7497 58.0267 51.155 59.4987 51.155 61.12V71.168C51.155 72.7893 50.7497 74.2613 49.939 75.584C49.1283 76.9067 48.0617 77.9733 46.739 78.784C45.4163 79.5947 43.9443 80 42.323 80H14.355ZM58.648 80V62.336C58.648 60.672 59.0533 59.1787 59.864 57.856C60.6747 56.5333 61.7413 55.488 63.064 54.72C64.3867 53.9093 65.8587 53.504 67.48 53.504H95.128C95.3413 53.504 95.512 53.44 95.64 53.312C95.8107 53.1413 95.896 52.9493 95.896 52.736V43.072C95.896 42.8587 95.8107 42.688 95.64 42.56C95.512 42.3893 95.3413 42.304 95.128 42.304H67.8C67.5867 42.304 67.3947 42.3893 67.224 42.56C67.096 42.688 67.032 42.8587 67.032 43.072V46.208H58.648V42.752C58.648 41.088 59.0533 39.5947 59.864 38.272C60.6747 36.9493 61.7413 35.904 63.064 35.136C64.3867 34.3253 65.8587 33.92 67.48 33.92H95.448C97.0693 33.92 98.5413 34.3253 99.864 35.136C101.229 35.904 102.296 36.9493 103.064 38.272C103.875 39.5947 104.28 41.088 104.28 42.752V53.12C104.28 54.6987 103.875 56.1707 103.064 57.536C102.296 58.8587 101.229 59.9253 99.864 60.736C98.5413 61.5467 97.0693 61.952 95.448 61.952H67.8C67.5867 61.952 67.3947 62.0373 67.224 62.208C67.096 62.336 67.032 62.5067 67.032 62.72V70.848C67.032 71.0613 67.096 71.2533 67.224 71.424C67.3947 71.552 67.5867 71.616 67.8 71.616H104.28V80H58.648Z" fill="url(#paint0_linear_6_2)"/>
<defs>
<linearGradient id="paint0_linear_6_2" x1="-3.66667" y1="56.5217" x2="113.667" y2="56.5217" gradientUnits="userSpaceOnUse">
<stop stop-color="#DB0B5F"/>
<stop offset="1" stop-color="#6F00ED"/>
</linearGradient>
</defs>
</svg>
